<svg xmlns="http://www.w3.org/2000/svg" viewBox="0 0 900 220" width="900" height="220" role="img" aria-labelledby="t d">
<title id="t">Willian Salles — Laboratório Digital</title>
<desc id="d">Banner com o nome Willian Salles e um Pac-Man comendo pontos em um labirinto.</desc>
<style>
.n{font:700 44px ui-monospace,'JetBrains Mono',Consolas,monospace;fill:#f5c518;letter-spacing:4px}
.s{font:600 17px system-ui,-apple-system,'Segoe UI',sans-serif;fill:#e8ecf4}
.p{font:14px ui-monospace,Consolas,monospace;fill:#2f6bff}
.c{animation:b 1s steps(1) infinite}@keyframes b{50%{opacity:0}}
@media (prefers-reduced-motion:reduce){*{animation:none!important}}
</style>
<rect x="2" y="2" width="896" height="216" rx="18" fill="#07090F" stroke="#2f6bff" stroke-width="3"/>
<rect x="9" y="9" width="882" height="202" rx="13" fill="none" stroke="#2f6bff" stroke-opacity=".45" stroke-width="1.5"/>
<text x="50" y="52" class="p">&gt; laboratório digital<tspan class="c">_</tspan></text>
<text x="50" y="104" class="n">WILLIAN SALLES</text>
<text x="50" y="138" class="s">Desenvolvimento • Tecnologia • Projetos • Aprendizado</text>
<line x1="30" y1="158" x2="870" y2="158" stroke="#2f6bff" stroke-opacity=".35"/>
<rect x="47" y="175" width="6" height="6" rx="1" fill="#f4d7b0"><animate attributeName="opacity" values="1;1;0;0" keyTimes="0;0.0708;0.0728;1" dur="7.0s" repeatCount="indefinite"/></rect><rect x="77" y="175" width="6" height="6" rx="1" fill="#f4d7b0"><animate attributeName="opacity" values="1;1;0;0" keyTimes="0;0.1021;0.1041;1" dur="7.0s" repeatCount="indefinite"/></rect><rect x="107" y="175" width="6" height="6" rx="1" fill="#f4d7b0"><animate attributeName="opacity" values="1;1;0;0" keyTimes="0;0.1333;0.1353;1" dur="7.0s" repeatCount="indefinite"/></rect><rect x="137" y="175" width="6" height="6" rx="1" fill="#f4d7b0"><animate attributeName="opacity" values="1;1;0;0" keyTimes="0;0.1646;0.1666;1" dur="7.0s" repeatCount="indefinite"/></rect><rect x="167" y="175" width="6" height="6" rx="1" fill="#f4d7b0"><animate attributeName="opacity" values="1;1;0;0" keyTimes="0;0.1958;0.1978;1" dur="7.0s" repeatCount="indefinite"/></rect><rect x="197" y="175" width="6" height="6" rx="1" fill="#f4d7b0"><animate attributeName="opacity" values="1;1;0;0" keyTimes="0;0.2271;0.2291;1" dur="7.0s" repeatCount="indefinite"/></rect><rect x="227" y="175" width="6" height="6" rx="1" fill="#f4d7b0"><animate attributeName="opacity" values="1;1;0;0" keyTimes="0;0.2583;0.2603;1" dur="7.0s" repeatCount="indefinite"/></rect><rect x="257" y="175" width="6" height="6" rx="1" fill="#f4d7b0"><animate attributeName="opacity" values="1;1;0;0" keyTimes="0;0.2896;0.2916;1" dur="7.0s" repeatCount="indefinite"/></rect><rect x="287" y="175" width="6" height="6" rx="1" fill="#f4d7b0"><animate attributeName="opacity" values="1;1;0;0" keyTimes="0;0.3208;0.3228;1" dur="7.0s" repeatCount="indefinite"/></rect><rect x="317" y="175" width="6" height="6" rx="1" fill="#f4d7b0"><animate attributeName="opacity" values="1;1;0;0" keyTimes="0;0.3521;0.3541;1" dur="7.0s" repeatCount="indefinite"/></rect><rect x="347" y="175" width="6" height="6" rx="1" fill="#f4d7b0"><animate attributeName="opacity" values="1;1;0;0" keyTimes="0;0.3833;0.3853;1" dur="7.0s" repeatCount="indefinite"/></rect><rect x="377" y="175" width="6" height="6" rx="1" fill="#f4d7b0"><animate attributeName="opacity" values="1;1;0;0" keyTimes="0;0.4146;0.4166;1" dur="7.0s" repeatCount="indefinite"/></rect><rect x="407" y="175" width="6" height="6" rx="1" fill="#f4d7b0"><animate attributeName="opacity" values="1;1;0;0" keyTimes="0;0.4458;0.4478;1" dur="7.0s" repeatCount="indefinite"/></rect><rect x="437" y="175" width="6" height="6" rx="1" fill="#f4d7b0"><animate attributeName="opacity" values="1;1;0;0" keyTimes="0;0.4771;0.4791;1" dur="7.0s" repeatCount="indefinite"/></rect><rect x="467" y="175" width="6" height="6" rx="1" fill="#f4d7b0"><animate attributeName="opacity" values="1;1;0;0" keyTimes="0;0.5083;0.5103;1" dur="7.0s" repeatCount="indefinite"/></rect><rect x="497" y="175" width="6" height="6" rx="1" fill="#f4d7b0"><animate attributeName="opacity" values="1;1;0;0" keyTimes="0;0.5396;0.5416;1" dur="7.0s" repeatCount="indefinite"/></rect><rect x="527" y="175" width="6" height="6" rx="1" fill="#f4d7b0"><animate attributeName="opacity" values="1;1;0;0" keyTimes="0;0.5708;0.5728;1" dur="7.0s" repeatCount="indefinite"/></rect><rect x="557" y="175" width="6" height="6" rx="1" fill="#f4d7b0"><animate attributeName="opacity" values="1;1;0;0" keyTimes="0;0.6021;0.6041;1" dur="7.0s" repeatCount="indefinite"/></rect><rect x="587" y="175" width="6" height="6" rx="1" fill="#f4d7b0"><animate attributeName="opacity" values="1;1;0;0" keyTimes="0;0.6333;0.6353;1" dur="7.0s" repeatCount="indefinite"/></rect><rect x="617" y="175" width="6" height="6" rx="1" fill="#f4d7b0"><animate attributeName="opacity" values="1;1;0;0" keyTimes="0;0.6646;0.6666;1" dur="7.0s" repeatCount="indefinite"/></rect><rect x="647" y="175" width="6" height="6" rx="1" fill="#f4d7b0"><animate attributeName="opacity" values="1;1;0;0" keyTimes="0;0.6958;0.6978;1" dur="7.0s" repeatCount="indefinite"/></rect><rect x="677" y="175" width="6" height="6" rx="1" fill="#f4d7b0"><animate attributeName="opacity" values="1;1;0;0" keyTimes="0;0.7271;0.7291;1" dur="7.0s" repeatCount="indefinite"/></rect><rect x="707" y="175" width="6" height="6" rx="1" fill="#f4d7b0"><animate attributeName="opacity" values="1;1;0;0" keyTimes="0;0.7583;0.7603;1" dur="7.0s" repeatCount="indefinite"/></rect><rect x="737" y="175" width="6" height="6" rx="1" fill="#f4d7b0"><animate attributeName="opacity" values="1;1;0;0" keyTimes="0;0.7896;0.7916;1" dur="7.0s" repeatCount="indefinite"/></rect><rect x="767" y="175" width="6" height="6" rx="1" fill="#f4d7b0"><animate attributeName="opacity" values="1;1;0;0" keyTimes="0;0.8208;0.8228;1" dur="7.0s" repeatCount="indefinite"/></rect><rect x="797" y="175" width="6" height="6" rx="1" fill="#f4d7b0"><animate attributeName="opacity" values="1;1;0;0" keyTimes="0;0.8521;0.8541;1" dur="7.0s" repeatCount="indefinite"/></rect><rect x="827" y="175" width="6" height="6" rx="1" fill="#f4d7b0"><animate attributeName="opacity" values="1;1;0;0" keyTimes="0;0.8833;0.8853;1" dur="7.0s" repeatCount="indefinite"/></rect>
<g transform="translate(-30 178)"><animateTransform attributeName="transform" type="translate" from="-30 178" to="930 178" dur="7.0s" begin="-6.55s" repeatCount="indefinite"/><path d="M-12 12V-2A12 12 0 0 1 12 -2V12L8 8L4 12L0 8L-4 12L-8 8Z" fill="#ef4444"/><circle cx="-5" cy="-2" r="3.2" fill="#fff"/><circle cx="5" cy="-2" r="3.2" fill="#fff"/><circle cx="-3.8" cy="-2" r="1.6" fill="#1d4ed8"/><circle cx="6.2" cy="-2" r="1.6" fill="#1d4ed8"/></g><g transform="translate(-30 178)"><animateTransform attributeName="transform" type="translate" from="-30 178" to="930 178" dur="7.0s" begin="-6.2s" repeatCount="indefinite"/><path d="M-12 12V-2A12 12 0 0 1 12 -2V12L8 8L4 12L0 8L-4 12L-8 8Z" fill="#e879f9"/><circle cx="-5" cy="-2" r="3.2" fill="#fff"/><circle cx="5" cy="-2" r="3.2" fill="#fff"/><circle cx="-3.8" cy="-2" r="1.6" fill="#1d4ed8"/><circle cx="6.2" cy="-2" r="1.6" fill="#1d4ed8"/></g>
<g transform="translate(-30 178)"><animateTransform attributeName="transform" type="translate" from="-30 178" to="930 178" dur="7.0s" begin="0s" repeatCount="indefinite"/><path fill="#f5c518"><animate attributeName="d" dur="0.3s" repeatCount="indefinite" values="M0 0L14 -8A16 16 0 1 0 14 8Z;M0 0L16 -1A16 16 0 1 0 16 1Z;M0 0L14 -8A16 16 0 1 0 14 8Z"/></path></g>
</svg>
